<svg viewBox="0 0 330 200" xmlns="http://www.w3.org/2000/svg"><g><g><g><g><g><line x1="40" y1="165.1209829029709" x2="35" y2="165.1209829029709" style="visibility: inherit;" fill="rgb(0, 0, 0)" stroke="rgb(204, 204, 204)" stroke-width="1px"></line><line x1="40" y1="140.604492748894" x2="35" y2="140.604492748894" style="visibility: inherit;" fill="rgb(0, 0, 0)" stroke="rgb(204, 204, 204)" stroke-width="1px"></line><line x1="40" y1="116.08800259481708" x2="35" y2="116.08800259481708" style="visibility: inherit;" fill="rgb(0, 0, 0)" stroke="rgb(204, 204, 204)" stroke-width="1px"></line><line x1="40" y1="91.5715124407402" x2="35" y2="91.5715124407402" style="visibility: inherit;" fill="rgb(0, 0, 0)" stroke="rgb(204, 204, 204)" stroke-width="1px"></line><line x1="40" y1="67.05502228666326" x2="35" y2="67.05502228666326" style="visibility: inherit;" fill="rgb(0, 0, 0)" stroke="rgb(204, 204, 204)" stroke-width="1px"></line><line x1="40" y1="42.53853213258637" x2="35" y2="42.53853213258637" style="visibility: inherit;" fill="rgb(0, 0, 0)" stroke="rgb(204, 204, 204)" stroke-width="1px"></line><line x1="40" y1="18.022041978509463" x2="35" y2="18.022041978509463" style="visibility: inherit;" fill="rgb(0, 0, 0)" stroke="rgb(204, 204, 204)" stroke-width="1px"></line></g><g transform="translate(30, 0)"><text x="0" y="165.1209829029709" dx="0em" dy="0.3em" style="text-anchor: end; visibility: inherit; font-family: Roboto, sans-serif; font-size: 12px; font-weight: 200;" fill="rgb(33, 33, 33)" stroke="none" stroke-width="1px">0</text><text x="0" y="140.604492748894" dx="0em" dy="0.3em" style="text-anchor: end; visibility: inherit; font-family: Roboto, sans-serif; font-size: 12px; font-weight: 200;" fill="rgb(33, 33, 33)" stroke="none" stroke-width="1px">0.1</text><text x="0" y="116.08800259481708" dx="0em" dy="0.3em" style="text-anchor: end; visibility: inherit; font-family: Roboto, sans-serif; font-size: 12px; font-weight: 200;" fill="rgb(33, 33, 33)" stroke="none" stroke-width="1px">0.2</text><text x="0" y="91.5715124407402" dx="0em" dy="0.3em" style="text-anchor: end; visibility: inherit; font-family: Roboto, sans-serif; font-size: 12px; font-weight: 200;" fill="rgb(33, 33, 33)" stroke="none" stroke-width="1px">0.3</text><text x="0" y="67.05502228666326" dx="0em" dy="0.3em" style="text-anchor: end; visibility: inherit; font-family: Roboto, sans-serif; font-size: 12px; font-weight: 200;" fill="rgb(33, 33, 33)" stroke="none" stroke-width="1px">0.4</text><text x="0" y="42.53853213258637" dx="0em" dy="0.3em" style="text-anchor: end; visibility: inherit; font-family: Roboto, sans-serif; font-size: 12px; font-weight: 200;" fill="rgb(33, 33, 33)" stroke="none" stroke-width="1px">0.5</text><text x="0" y="18.022041978509463" dx="0em" dy="0.3em" style="text-anchor: end; visibility: inherit; font-family: Roboto, sans-serif; font-size: 12px; font-weight: 200;" fill="rgb(33, 33, 33)" stroke="none" stroke-width="1px">0.6</text></g><line x1="40" y1="0" x2="40" y2="177" fill="rgb(0, 0, 0)" stroke="rgb(204, 204, 204)" stroke-width="1px"></line></g></g><g transform="translate(40, 0)" clip-path="url(#clip_0)"><clipPath id="clip_0"><rect width="290" height="177"></rect></clipPath><g><g><g><line x1="15.843751173735816" y1="0" x2="15.843751173735816" y2="177" fill="rgb(0, 0, 0)" stroke="rgb(66, 66, 66)" stroke-width="1px" opacity="0.25"></line><line x1="61.033044466208125" y1="0" x2="61.033044466208125" y2="177" fill="rgb(0, 0, 0)" stroke="rgb(66, 66, 66)" stroke-width="1px" opacity="0.25"></line><line x1="106.22233775868044" y1="0" x2="106.22233775868044" y2="177" fill="rgb(0, 0, 0)" stroke="rgb(66, 66, 66)" stroke-width="1px" opacity="0.25"></line><line x1="151.41163105115277" y1="0" x2="151.41163105115277" y2="177" fill="rgb(0, 0, 0)" stroke="rgb(66, 66, 66)" stroke-width="1px" opacity="0.25"></line><line x1="196.60092434362508" y1="0" x2="196.60092434362508" y2="177" fill="rgb(0, 0, 0)" stroke="rgb(66, 66, 66)" stroke-width="1px" opacity="0.25"></line><line x1="241.79021763609737" y1="0" x2="241.79021763609737" y2="177" fill="rgb(0, 0, 0)" stroke="rgb(66, 66, 66)" stroke-width="1px" opacity="0.25"></line><line x1="286.9795109285697" y1="0" x2="286.9795109285697" y2="177" fill="rgb(0, 0, 0)" stroke="rgb(66, 66, 66)" stroke-width="1px" opacity="0.25"></line></g><g><line x1="0" y1="165.1209829029709" x2="290" y2="165.1209829029709" fill="rgb(0, 0, 0)" stroke="rgb(66, 66, 66)" stroke-width="1px" opacity="0.25"></line><line x1="0" y1="140.604492748894" x2="290" y2="140.604492748894" fill="rgb(0, 0, 0)" stroke="rgb(66, 66, 66)" stroke-width="1px" opacity="0.25"></line><line x1="0" y1="116.08800259481708" x2="290" y2="116.08800259481708" fill="rgb(0, 0, 0)" stroke="rgb(66, 66, 66)" stroke-width="1px" opacity="0.25"></line><line x1="0" y1="91.5715124407402" x2="290" y2="91.5715124407402" fill="rgb(0, 0, 0)" stroke="rgb(66, 66, 66)" stroke-width="1px" opacity="0.25"></line><line x1="0" y1="67.05502228666326" x2="290" y2="67.05502228666326" fill="rgb(0, 0, 0)" stroke="rgb(66, 66, 66)" stroke-width="1px" opacity="0.25"></line><line x1="0" y1="42.53853213258637" x2="290" y2="42.53853213258637" fill="rgb(0, 0, 0)" stroke="rgb(66, 66, 66)" stroke-width="1px" opacity="0.25"></line><line x1="0" y1="18.022041978509463" x2="290" y2="18.022041978509463" fill="rgb(0, 0, 0)" stroke="rgb(66, 66, 66)" stroke-width="1px" opacity="0.25"></line></g></g></g><g><g><line x1="0" y1="165.1209829029709" x2="290" y2="165.1209829029709" fill="rgb(0, 0, 0)" stroke="rgb(153, 153, 153)" stroke-width="1.5px"></line></g></g><g><g><line x1="15.843751173735816" y1="0" x2="15.843751173735816" y2="177" fill="rgb(0, 0, 0)" stroke="rgb(153, 153, 153)" stroke-width="1.5px"></line></g></g><g><g><g><g><g><path stroke="rgb(255, 112, 67)" stroke-width="2px" d="M33.015682624875296,-1.131722791987741L33.91946849072474,0.864196070750114L34.82325435657419,17.91672884157622L35.72704022242363,31.498683745355816L36.630826088273075,27.202718264307496L37.534611954122525,45.22924934295835L38.43839781997197,47.227226573189405L39.34218368582142,48.34027485306523L40.24596955167086,46.29825079823609L41.14975541752031,50.70828341560992L42.05354128336975,59.97688274183014L42.9573271492192,65.46786866950123L43.86111301506865,46.00432412142445L44.764898880918096,52.137770421922895L45.668684746767546,57.98121467305098L46.57247061261699,69.17156542197915L47.47625647846644,70.6486957548469L48.38004234431588,84.42199757703501L49.28382821016533,82.75920307876804L50.187614076014775,76.95763918230443L51.091399941864225,84.57626628147808L51.99518580771367,106.4282739399484L52.89897167356312,117.63176591930021L53.80275753941256,102.92320868578946L54.70654340526201,98.5730674924647L55.61032927111145,113.13821502320539L56.5141151369609,105.70918235895525L57.417901002810346,109.9780581304415L58.32168686865979,115.77309726052091L59.22547273450923,107.8902896319445L60.12925860035868,115.88127892994777L61.033044466208125,126.27434049905888L61.936830332057575,120.14326376590982L62.84061619790702,115.11741177808219L63.74440206375647,118.63129420588305L64.64818792960591,127.74033953250537L65.55197379545535,119.58443725367388L66.45575966130481,127.81369084481062L67.35954552715425,136.76025346908284L68.2633313930037,135.33741674610087L69.16711725885315,129.71551531374422L70.0709031247026,136.7713413048782L70.97468899055204,143.4360232313316L71.87847485640148,141.3231570004759L72.78226072225092,144.57593298980314L73.68604658810038,134.44523517558096L74.58983245394982,129.97244398627672L75.49361831979927,137.37121372536842L76.39740418564871,136.51171149181607L77.30119005149817,132.50274973472307L78.20497591734761,138.84132124408976L79.10876178319705,143.7399657619323L80.0125476490465,143.40128755263078L80.91633351489595,142.85473728011902L81.8201193807454,129.96589753916072L82.72390524659484,134.24996447096328L83.62769111244428,134.4038765653367L84.53147697829374,133.41528585784278L85.43526284414318,130.43955440521043L86.33904870999262,134.00273759229444L87.24283457584207,140.83293400153084L88.14662044169152,145.82649463639254L89.05040630754097,145.30408614910095L89.95419217339042,147.676434224774L90.85797803923985,144.33757361356558L91.76176390508931,140.97538649808507L92.66554977093875,144.30507497878617L93.56933563678818,147.47371915830837L94.47312150263764,148.55826951104697L95.37690736848708,151.37661379769088L96.28069323433654,150.1300417639323L97.18447910018598,153.73730061010386L98.08826496603542,150.99660005667445L98.99205083188487,152.46627091442627L99.89583669773432,144.84609952252097L100.79962256358377,150.31414847400555L101.70340842943321,150.49279019523522L102.60719429528265,147.19604460812224L103.51098016113211,149.93290133763418L104.41476602698155,150.7447884305313L105.318551892831,153.3024900483017L106.22233775868044,147.53945381708647L107.1261236245299,147.20513255753292L108.02990949037934,144.84939825934583L108.93369535622878,146.9757885268301L109.83748122207822,142.59348520405268L110.74126708792768,147.5161411128763L111.64505295377712,151.7315590499986L112.54883881962658,144.74284655147582L113.45262468547601,142.89875649776636L114.35641055132547,150.62027997254268L115.26019641717491,153.26791437247235L116.16398228302437,145.44393526431307L117.0677681488738,150.31323612951527L117.97155401472324,147.00478591137102L118.8753398805727,148.39532537457305L119.77912574642212,147.0111540881568L120.68291161227158,151.54718521910857L121.58669747812102,149.6167571275573L122.49048334397048,148.20680360870335L123.39426920981992,149.65715621923852L124.29805507566937,152.00191989457846L125.20184094151881,153.93363056947405L126.10562680736827,150.36076787591713L127.00941267321771,153.17293677817847L127.91319853906715,151.4778912170723L128.8169844049166,151.87158399287998L129.72077027076605,154.4591812901555L130.6245561366155,152.70316705993793L131.52834200246494,153.17909337996275L132.43212786831438,154.77847654633587L133.33591373416382,157.0068431366404L134.23969960001327,156.19810471705605L135.14348546586274,151.19842483885236L136.04727133171218,154.35992304867887L136.95105719756162,152.6048705826164L137.85484306341107,154.21825036242194L138.7586289292605,153.70893212202128L139.66241479510995,155.5844231110332L140.56620066095942,153.26253836518578L141.46998652680884,154.71551881458285L142.37377239265828,158.405120781777L143.27755825850775,155.13947453494671L144.18134412435717,156.93649513655706L145.08512999020664,156.13223971559225L145.98891585605608,154.31080552228457L146.89270172190552,156.7736519278878L147.79648758775497,155.28026614333166L148.70027345360438,158.0791826189506L149.60405931945385,160.51708955947745L150.5078451853033,160.14080476683216L151.41163105115277,158.28531801210704L152.31541691700218,160.16855902721701L153.21920278285162,158.44889152917114L154.1229886487011,158.67378864540825L155.02677451455054,160.97680125294207L155.93056038039995,154.70366023744435L156.83434624624942,158.13419664865822L157.73813211209887,155.63754013863846L158.64191797794834,158.35520697781934L159.54570384379775,152.098432733109L160.4494897096472,155.4115602691234L161.35327557549667,157.74062362907736L162.2570614413461,159.21402048614553L163.16084730719552,156.0263385014342L164.064633173045,157.0989538601487L164.96841903889444,155.89191393582513L165.87220490474385,157.95708744041244L166.77599077059332,159.15086102396862L167.67977663644277,161.27804153415218L168.58356250229224,156.22133159322894L169.48734836814165,159.0591494412586L170.3911342339911,159.5851789418499L171.29492009984057,155.17793853989676L172.19870596569,155.7424553278858L173.10249183153945,147.72017922508357L174.0062776973889,149.79814333920393L174.91006356323834,153.69268125887123L175.8138494290878,154.1179620033594L176.71763529493722,154.92529784273725L177.62142116078667,155.39869212907084L178.52520702663614,158.51591528523727L179.42899289248558,158.05830117480843L180.33277875833502,160.3306901333373L181.23656462418447,156.1141936648868L182.1403504900339,156.0117674994119L183.04413635588338,156.19571392857182L183.9479222217328,158.65310162991076L184.85170808758227,157.26000564158096L185.7554939534317,160.1345250731703L186.65927981928115,153.53436314772603L187.5630656851306,153.87196950484127L188.46685155098004,155.7931888291438L189.37063741682948,149.9431854070899L190.27442328267892,150.99801409252655L191.17820914852837,150.08313580974055L192.08199501437784,153.08834231044932L192.98578088022728,153.3068786440038L193.8895667460767,155.77124665339622L194.79335261192617,155.29116620355876L195.6971384777756,153.3803253128961L196.60092434362508,157.87185463242753L197.5047102094745,149.51019691833358L198.40849607532394,155.14005313430545L199.3122819411734,156.85306286920206L200.21606780702285,157.32171613663022L201.11985367287227,158.5493534286929L202.02363953872174,159.55032930944088L202.92742540457118,155.9451937414293L203.83121127042065,154.7256081048659L204.73499713627007,145.52962226460406L205.6387830021195,150.98184506889498L206.54256886796898,144.4878879211816L207.44635473381842,152.12252304195533L208.35014059966784,154.45731850616218L209.2539264655173,154.97525457118388L210.15771233136675,148.05452067710976L211.06149819721617,143.6213689003779L211.96528406306564,150.55581046926858L212.86906992891508,151.20585369303006L213.77285579476455,155.1917281861984L214.67664166061397,158.56430190191006L215.5804275264634,157.74192535098703L216.48421339231288,159.1833019905733L217.38799925816232,158.73211203418532L218.29178512401177,155.84707563461996L219.1955709898612,156.65400775979003L220.09935685571065,157.89915427210315L221.00314272156012,159.62173881987817L221.90692858740954,161.21790256393834L222.81071445325898,160.87047006925442L223.71450031910845,160.527805450055L224.6182861849579,160.79964171469996L225.52207205080734,161.94844475962753L226.42585791665678,159.49738589606253L227.32964378250622,159.8103188960663L228.2334296483557,161.10915289042677L229.1372155142051,161.23578758933243L230.04100138005458,159.94524220057147L230.94478724590402,158.71533873763943L231.84857311175347,160.80749630066114L232.7523589776029,162.36433676193877L233.65614484345235,161.74071667148962L234.5599307093018,160.94395825622104L235.46371657515124,160.72106186549613L236.36750244100068,154.34063597286308L237.27128830685015,158.15731927199346L238.1750741726996,157.0587896476433L239.078860038549,160.1406975977589L239.98264590439848,161.78852795999666L240.88643177024792,161.81003406319027L241.79021763609737,162.51480097114998L242.6940035019468,163.09667174957286L243.59778936779625,160.7245907246026L244.50157523364572,161.80341261008587L245.40536109949517,162.70724591883283L246.30914696534458,159.42814072170358L247.21293283119405,153.89646904037662L248.1167186970435,156.55363336726052L249.02050456289297,157.00701251949508L249.92429042874238,155.7172563440863L250.82807629459182,156.19020033417698L251.7318621604413,155.25038976789662L252.63564802629074,156.38912504292824L253.53943389214015,152.4727673851961L254.44321975798962,157.37634353697004L255.34700562383907,159.9964129423492L256.25079148968854,161.2137444053712L257.1545773555379,162.73830060805236L258.0583632213874,162.46605104679267L258.96214908723687,160.81268594214066L259.86593495308625,161.74692296448595L260.76972081893575,162.09399183406794L261.6735066847852,162.0936333277734L262.57729255063464,161.3484982178498L263.4810784164841,162.55623294790843L264.3848642823335,153.8823896585032L265.28865014818297,157.37121446889643L266.1924360140324,154.71435487003285L267.09622187988185,158.34837890151243L268.0000077457313,159.87815206658698L268.90379361158074,159.75189153563315L269.80757947743024,160.41447820081373L270.7113653432796,161.20485332666016L271.61515120912907,158.06938944568097L272.51893707497857,160.25530558020674L273.422722940828,151.30274651404523L274.32650880667745,155.8102560885629L275.2302946725269,158.8207432488377L276.13408053837634,161.09705137239354L277.0378664042258,161.5291311159211L277.9416522700752,162.53329353398746L278.84543813592467,158.58619513176285L279.7492240017741,157.86727645342103L280.65300986762355,153.0219050750362L281.556795733473,156.65812221755942L282.46058159932244,158.84303155401543L283.3643674651719,154.85317639662443L284.2681533310213,157.33780576156153L285.17193919687077,160.08766727024516L286.07572506272027,157.18902627686097L286.9795109285697,153.20849130566347L287.8832967944191,156.62875825519993L288.7870826602686,159.70075201692197L289.69086852611804,161.81881399092563L290.5946543919674,161.59609139806872" style="fill: none;" fill="none"></path></g></g></g></g><g opacity="0.2"><g><g><g><path stroke="rgb(255, 112, 67)" stroke-width="2px" d="M28.49675329562806,-0.8913369150124573L29.400539161477507,8.842944834258002L30.304325027326954,-6.6434975150249365L32.111896759025846,-8.7976680258315L33.015682624875296,11.126717748214485L33.91946849072474,3.8578919299670558L34.82325435657419,43.49459279639112L35.72704022242363,51.87116918101377L36.630826088273075,20.75885485907949L37.534611954122525,72.26883241948842L38.43839781997197,50.224178217768966L39.34218368582142,50.00984252623651L40.24596955167086,43.23521994097233L41.14975541752031,57.32332557123175L42.05354128336975,73.87977319347054L42.9573271492192,73.70434452622342L43.86111301506865,16.80901375363235L44.764898880918096,61.33793865232009L45.668684746767546,66.74638035215324L46.57247061261699,85.95709074382955L47.47625647846644,72.86439119066624L48.38004234431588,105.08194995515795L49.28382821016533,80.26501135709374L50.187614076014775,68.25529339146486L51.091399941864225,96.00420688780437L51.99518580771367,139.20628535462725L52.89897167356312,134.43700386586355L53.80275753941256,80.86037285321885L54.70654340526201,92.04785570561768L55.61032927111145,134.98593631300812L56.5141151369609,94.56563336451057L57.417901002810346,116.3813717870053L58.32168686865979,124.46565595509789L59.22547273450923,96.06607818952234L60.12925860035868,127.86776287668357L61.033044466208125,141.86393285251552L61.936830332057575,110.94664866626053L62.84061619790702,107.57863379637729L63.74440206375647,123.902117847569L64.64818792960591,141.40390752241504L65.55197379545535,107.35058383543947L66.45575966130481,140.15757123150797L67.35954552715425,150.18009740548612L68.2633313930037,133.20316166162837L69.16711725885315,121.28266316521041L70.0709031247026,147.3550802915783L70.97468899055204,153.43304612101116L71.87847485640148,138.15385765419242L72.78226072225092,149.45509697379393L73.68604658810038,119.24918845424786L74.58983245394982,123.26325720232036L75.49361831979927,148.469368334006L76.39740418564871,135.22245814148752L77.30119005149817,126.48930709908363L78.20497591734761,148.34917850813977L79.10876178319705,151.08793253869607L80.0125476490465,142.8932702386785L80.91633351489595,142.03491187135143L81.8201193807454,110.6326379277233L82.72390524659484,140.6760648686671L83.62769111244428,134.6347447068968L84.53147697829374,131.93239979660189L85.43526284414318,125.97595722626194L86.33904870999262,139.34751237292045L87.24283457584207,151.07822861538548L88.14662044169152,153.31683558868508L89.05040630754097,144.52047341816353L89.95419217339042,151.2349563382836L90.85797803923985,139.32928269675295L91.76176390508931,135.93210582486427L92.66554977093875,149.29960769983785L93.56933563678818,152.2266854275916L94.47312150263764,150.1850950401549L95.37690736848708,155.60413022765673L96.28069323433654,148.26018371329442L97.18447910018598,159.1481888793612L98.08826496603542,146.88554922653037L98.99205083188487,154.670777201054L99.89583669773432,133.41584243466303L100.79962256358377,158.5162219012324L101.70340842943321,150.76075277707972L102.60719429528265,142.2509262274528L103.51098016113211,154.03818643190206L104.41476602698155,151.962619069877L105.318551892831,157.13904247495734L106.22233775868044,138.89489947026362L107.1261236245299,146.70365066820258L108.02990949037934,141.3157968120652L108.93369535622878,150.16537392805648L109.83748122207822,136.02003021988656L110.74126708792768,154.90012497611175L111.64505295377712,158.05468595568198L112.54883881962658,134.2597778036917L113.45262468547601,140.1326214172022L114.35641055132547,162.2025651847071L115.26019641717491,157.23936597236687L116.16398228302437,133.70796660207412L117.0677681488738,157.61718742731856L117.97155401472324,142.0421105841546L118.8753398805727,150.4811345693761L119.77912574642212,144.9348971585324L120.68291161227158,158.35123191553623L121.58669747812102,146.72111499023038L122.49048334397048,146.09187333042246L123.39426920981992,151.8326851350413L124.29805507566937,155.51906540758836L125.20184094151881,156.83119658181738L126.10562680736827,145.0014738355818L127.00941267321771,157.39119013157045L127.91319853906715,148.93532287541302L128.8169844049166,152.4621231565915L129.72077027076605,158.34057723606878L130.6245561366155,150.06914571461158L131.52834200246494,153.89298286L132.43212786831438,157.1775512958955L133.33591373416382,160.34939302209725L134.23969960001327,154.98499708767952L135.14348546586274,143.69890502154684L136.04727133171218,159.10217036341862L136.95105719756162,149.9722918835227L137.85484306341107,156.63832003213022L138.7586289292605,152.94495476142035L139.66241479510995,158.39765959455107L140.56620066095942,149.7797112464146L141.46998652680884,156.89498948867848L142.37377239265828,163.9395237325682L143.27755825850775,150.24100516470128L144.18134412435717,159.6320260389726L145.08512999020664,154.92585658414495L145.98891585605608,151.5786542323231L146.89270172190552,160.46792153629272L147.79648758775497,153.04018746649737L148.70027345360438,162.27755733237905L149.60405931945385,164.1739499702677L150.5078451853033,159.5763775778642L151.41163105115277,155.50208788001933L152.31541691700218,162.99342054988196L153.21920278285162,155.86939028210236L154.1229886487011,159.01113431976393L155.02677451455054,164.4313201642428L155.93056038039995,145.2939487141977L156.83434624624942,163.28000126547903L157.73813211209887,151.89255537360881L158.64191797794834,162.43170723659068L159.54570384379775,142.7132713660435L160.4494897096472,160.381251573145L161.35327557549667,161.23421866900833L162.2570614413461,161.42411577174775L163.16084730719552,151.2448155243672L164.064633173045,158.7078768982205L164.96841903889444,154.08135404933975L165.87220490474385,161.05484769729344L166.77599077059332,160.94152139930287L167.67977663644277,164.46881229942755L168.58356250229224,148.63626668184406L169.48734836814165,163.3158762133031L170.3911342339911,160.37422319273682L171.29492009984057,148.56707793696708L172.19870596569,156.58923050986937L173.10249183153945,135.68676507088023L174.0062776973889,152.9150895103844L174.91006356323834,159.53448813837224L175.8138494290878,154.75588312009165L176.71763529493722,156.13630160180404L177.62142116078667,156.10878355857125L178.52520702663614,163.1917500194869L179.42899289248558,157.37188000916518L180.33277875833502,163.7392735711306L181.23656462418447,149.78944896221108L182.1403504900339,155.85812825119947L183.04413635588338,156.4716335723117L183.9479222217328,162.33918318191917L184.85170808758227,155.17036165908627L185.7554939534317,164.4463042205543L186.65927981928115,143.6341202595596L187.5630656851306,154.37837904051412L188.46685155098004,158.67501781559756L189.37063741682948,141.1681802740091L190.27442328267892,152.58025712068152L191.17820914852837,148.7108183855615L192.08199501437784,157.59615206151244L192.98578088022728,153.63468314433555L193.8895667460767,159.46779866748483L194.79335261192617,154.57104552880259L195.6971384777756,150.5140639769021L196.60092434362508,164.6091486117246L197.5047102094745,136.96771034719265L198.40849607532394,163.58483745826322L199.3122819411734,159.42257747154702L200.21606780702285,158.02469603777246L201.11985367287227,160.39080936678693L202.02363953872174,161.05179313056286L202.92742540457118,150.53749038941194L203.83121127042065,152.89622965002076L204.73499713627007,131.7356435042113L205.6387830021195,159.16017927533136L206.54256886796898,134.74695219961154L207.44635473381842,163.57447572311597L208.35014059966784,157.95951170247247L209.2539264655173,155.75215866871642L210.15771233136675,137.67341983599857L211.06149819721617,136.97164123528006L211.96528406306564,160.95747282260464L212.86906992891508,152.18091852867232L213.77285579476455,161.1705399259509L214.67664166061397,163.62316247547753L215.5804275264634,156.50836052460247L216.48421339231288,161.34536694995273L217.38799925816232,158.05532709960332L218.29178512401177,151.51952103527194L219.1955709898612,157.86440594754512L220.09935685571065,159.76687404057282L221.00314272156012,162.20561564154073L221.90692858740954,163.61214818002858L222.81071445325898,160.34932132722858L223.71450031910845,160.0138085212559L224.6182861849579,161.20739611166738L225.52207205080734,163.67164932701888L226.42585791665678,155.820797600715L227.32964378250622,160.27971839607193L228.2334296483557,163.05740388196756L229.1372155142051,161.4257396376909L230.04100138005458,158.00942411743003L230.94478724590402,156.87048354324128L231.84857311175347,163.94573264519374L232.7523589776029,164.6995974538552L233.65614484345235,160.80528653581587L234.5599307093018,159.74882063331816L235.46371657515124,160.38671727940874L236.36750244100068,144.76999713391348L237.27128830685015,163.882344220689L238.1750741726996,155.41099521111806L239.078860038549,164.76355952293235L239.98264590439848,164.26027350335323L240.88643177024792,161.84229321798074L241.79021763609737,163.57195133308954L242.6940035019468,163.96947791720717L243.59778936779625,157.1664691871472L244.50157523364572,163.42164543831078L245.40536109949517,164.0629958819533L246.30914696534458,154.5094829260097L247.21293283119405,145.59896151838615L248.1167186970435,160.53937985758637L249.02050456289297,157.68708124784692L249.92429042874238,153.78262208097317L250.82807629459182,156.89961631931297L251.7318621604413,153.84067391847609L252.63564802629074,158.09722795547566L253.53943389214015,146.5982308985979L254.44321975798962,164.73170776463095L255.34700562383907,163.92651705041789L256.25079148968854,163.0397415999042L257.1545773555379,165.0251349120741L258.0583632213874,162.05767670490314L258.96214908723687,158.33263828516266L259.86593495308625,163.14827849800386L260.76972081893575,162.61459513844093L261.6735066847852,162.09309556833162L262.57729255063464,160.2307955529644L263.4810784164841,164.36783504299638L264.3848642823335,140.87162472439536L265.28865014818297,162.60445168448626L266.1924360140324,150.72906547173747L267.09622187988185,163.7994149487318L268.0000077457313,162.17281181419878L268.90379361158074,159.56250073920245L269.80757947743024,161.40835819858458L270.7113653432796,162.39041601542982L271.61515120912907,153.36619362421214L272.51893707497857,163.53417978199536L273.422722940828,137.87390791480297L274.32650880667745,162.57152045033942L275.2302946725269,163.3364739892498L276.13408053837634,164.5115135577273L277.0378664042258,162.17725073121244L277.9416522700752,164.03953716108703L278.84543813592467,152.6655475284259L279.7492240017741,156.78889843590832L280.65300986762355,145.75384800745894L281.556795733473,162.11244793134426L282.46058159932244,162.1203955586994L283.3643674651719,148.86839366053798L284.2681533310213,161.06474980896718L285.17193919687077,164.21245953327062L286.07572506272027,152.84106478678464L286.9795109285697,147.23768884886726L287.8832967944191,161.7591586795046L288.7870826602686,164.30874265950504L289.69086852611804,164.99590695193112L290.5946543919674,161.2620075087834" style="fill: none;" fill="none"></path></g></g></g></g></g><g><g><span fill="rgb(0, 0, 0)" stroke="none" stroke-width="1px">Alt + Scroll to Zoom</span></g></g></g><g transform="translate(40, 177)" clip-path="url(#clip_1)"><clipPath id="clip_1"><rect width="290" height="23"></rect></clipPath><g><g><line x1="15.843751173735816" y1="0" x2="15.843751173735816" y2="5" style="visibility: inherit;" fill="rgb(0, 0, 0)" stroke="rgb(204, 204, 204)" stroke-width="1px"></line><line x1="61.033044466208125" y1="0" x2="61.033044466208125" y2="5" style="visibility: inherit;" fill="rgb(0, 0, 0)" stroke="rgb(204, 204, 204)" stroke-width="1px"></line><line x1="106.22233775868044" y1="0" x2="106.22233775868044" y2="5" style="visibility: inherit;" fill="rgb(0, 0, 0)" stroke="rgb(204, 204, 204)" stroke-width="1px"></line><line x1="151.41163105115277" y1="0" x2="151.41163105115277" y2="5" style="visibility: inherit;" fill="rgb(0, 0, 0)" stroke="rgb(204, 204, 204)" stroke-width="1px"></line><line x1="196.60092434362508" y1="0" x2="196.60092434362508" y2="5" style="visibility: inherit;" fill="rgb(0, 0, 0)" stroke="rgb(204, 204, 204)" stroke-width="1px"></line><line x1="241.79021763609737" y1="0" x2="241.79021763609737" y2="5" style="visibility: inherit;" fill="rgb(0, 0, 0)" stroke="rgb(204, 204, 204)" stroke-width="1px"></line><line x1="286.9795109285697" y1="0" x2="286.9795109285697" y2="5" style="visibility: inherit;" fill="rgb(0, 0, 0)" stroke="rgb(204, 204, 204)" stroke-width="1px"></line></g><g transform="translate(0, 8)"><text x="15.843751173735816" y="0" dx="0em" dy="0.95em" style="text-anchor: middle; visibility: inherit; font-family: Roboto, sans-serif; font-size: 12px; font-weight: 200;" fill="rgb(33, 33, 33)" stroke="none" stroke-width="1px">0</text><text x="61.033044466208125" y="0" dx="0em" dy="0.95em" style="text-anchor: middle; visibility: inherit; font-family: Roboto, sans-serif; font-size: 12px; font-weight: 200;" fill="rgb(33, 33, 33)" stroke="none" stroke-width="1px">5k</text><text x="106.22233775868044" y="0" dx="0em" dy="0.95em" style="text-anchor: middle; visibility: inherit; font-family: Roboto, sans-serif; font-size: 12px; font-weight: 200;" fill="rgb(33, 33, 33)" stroke="none" stroke-width="1px">10k</text><text x="151.41163105115277" y="0" dx="0em" dy="0.95em" style="text-anchor: middle; visibility: inherit; font-family: Roboto, sans-serif; font-size: 12px; font-weight: 200;" fill="rgb(33, 33, 33)" stroke="none" stroke-width="1px">15k</text><text x="196.60092434362508" y="0" dx="0em" dy="0.95em" style="text-anchor: middle; visibility: inherit; font-family: Roboto, sans-serif; font-size: 12px; font-weight: 200;" fill="rgb(33, 33, 33)" stroke="none" stroke-width="1px">20k</text><text x="241.79021763609737" y="0" dx="0em" dy="0.95em" style="text-anchor: middle; visibility: inherit; font-family: Roboto, sans-serif; font-size: 12px; font-weight: 200;" fill="rgb(33, 33, 33)" stroke="none" stroke-width="1px">25k</text><text x="286.9795109285697" y="0" dx="0em" dy="0.95em" style="text-anchor: middle; visibility: hidden; font-family: Roboto, sans-serif; font-size: 12px; font-weight: 200;" fill="rgb(33, 33, 33)" stroke="none" stroke-width="1px">30k</text></g><line x1="0" y1="0" x2="290" y2="0" fill="rgb(0, 0, 0)" stroke="rgb(204, 204, 204)" stroke-width="1px"></line></g></g></g></g></svg>